<svg xmlns="http://www.w3.org/2000/svg" xmlns:xlink="http://www.w3.org/1999/xlink" width="50" zoomAndPan="magnify" viewBox="0 0 37.5 37.499999" height="50" preserveAspectRatio="xMidYMid meet" version="1.2"><defs><clipPath id="ecdbab30bc"><path d="M 4.746094 0.742188 L 32.132812 0.742188 L 32.132812 36.269531 L 4.746094 36.269531 Z M 4.746094 0.742188 "/></clipPath></defs><g id="6e09861817"><g clip-rule="nonzero" clip-path="url(#ecdbab30bc)"><path style=" stroke:none;fill-rule:nonzero;fill:#a40000;fill-opacity:1;" d="M 29.199219 14.40625 L 29.199219 11.503906 C 29.199219 5.570312 24.371094 0.742188 18.441406 0.742188 C 12.507812 0.742188 7.675781 5.570312 7.675781 11.503906 L 7.675781 14.40625 C 6.054688 14.449219 4.746094 15.773438 4.746094 17.40625 L 4.746094 33.082031 C 4.746094 33.480469 4.824219 33.867188 4.976562 34.234375 C 5.128906 34.605469 5.347656 34.929688 5.628906 35.210938 C 5.910156 35.496094 6.238281 35.710938 6.605469 35.863281 C 6.976562 36.015625 7.359375 36.09375 7.757812 36.09375 L 29.121094 36.09375 C 29.519531 36.09375 29.902344 36.019531 30.273438 35.863281 C 30.640625 35.710938 30.96875 35.496094 31.25 35.210938 C 31.53125 34.929688 31.75 34.605469 31.902344 34.234375 C 32.054688 33.867188 32.132812 33.480469 32.132812 33.082031 L 32.132812 17.40625 C 32.132812 15.773438 30.824219 14.449219 29.199219 14.40625 Z M 20.902344 23.078125 C 20.890625 23.171875 20.835938 23.386719 20.832031 23.402344 C 20.648438 24.039062 20.210938 24.5625 19.636719 24.878906 L 20.605469 29 C 20.632812 29.085938 20.640625 29.175781 20.628906 29.265625 C 20.613281 29.355469 20.582031 29.4375 20.527344 29.511719 C 20.476562 29.585938 20.410156 29.644531 20.332031 29.6875 C 20.25 29.726562 20.164062 29.75 20.074219 29.753906 L 16.871094 29.753906 C 16.78125 29.75 16.695312 29.726562 16.613281 29.6875 C 16.535156 29.644531 16.46875 29.585938 16.414062 29.511719 C 16.363281 29.4375 16.332031 29.355469 16.316406 29.265625 C 16.304688 29.175781 16.3125 29.085938 16.339844 29 L 17.242188 24.878906 C 16.671875 24.5625 16.230469 24.039062 16.046875 23.402344 C 16.042969 23.386719 15.988281 23.171875 15.976562 23.078125 C 15.960938 22.964844 15.949219 22.847656 15.949219 22.730469 C 15.949219 22.402344 16.015625 22.085938 16.140625 21.777344 C 16.265625 21.472656 16.445312 21.203125 16.679688 20.972656 C 16.914062 20.738281 17.183594 20.558594 17.488281 20.433594 C 17.792969 20.304688 18.109375 20.242188 18.441406 20.242188 C 18.769531 20.242188 19.085938 20.304688 19.390625 20.433594 C 19.695312 20.558594 19.964844 20.738281 20.199219 20.972656 C 20.433594 21.203125 20.613281 21.472656 20.738281 21.777344 C 20.867188 22.085938 20.929688 22.402344 20.929688 22.730469 C 20.929688 22.847656 20.917969 22.964844 20.902344 23.078125 Z M 25.527344 14.394531 L 11.351562 14.394531 L 11.351562 11.503906 C 11.351562 7.59375 14.53125 4.417969 18.441406 4.417969 C 22.351562 4.417969 25.527344 7.59375 25.527344 11.503906 Z M 25.527344 14.394531 "/></g></g></svg>