<svg xmlns="http://www.w3.org/2000/svg" xmlns:xlink="http://www.w3.org/1999/xlink" width="500" zoomAndPan="magnify" viewBox="0 0 375 374.999991" height="500" preserveAspectRatio="xMidYMid meet" version="1.2"><defs><clipPath id="5937502b6e"><path d="M 4.164062 12.644531 L 370.914062 12.644531 L 370.914062 362.144531 L 4.164062 362.144531 Z M 4.164062 12.644531 "/></clipPath></defs><g id="34698b3b47"><g clip-rule="nonzero" clip-path="url(#5937502b6e)"><path style=" stroke:none;fill-rule:evenodd;fill:#d3d3d3;fill-opacity:1;" d="M 120.847656 120.917969 L 189.921875 120.917969 C 193.757812 120.917969 196.871094 124.027344 196.871094 127.859375 L 196.871094 313.238281 L 30.933594 313.238281 L 30.933594 127.859375 C 30.933594 124.027344 34.046875 120.917969 37.878906 120.917969 L 106.953125 120.917969 L 106.953125 92.757812 L 65.054688 58.925781 L 47.390625 58.925781 C 43.554688 58.925781 40.441406 55.816406 40.441406 51.980469 C 40.441406 48.148438 43.554688 45.039062 47.390625 45.039062 L 73.914062 45.039062 L 73.914062 42.585938 C 73.914062 38.753906 77.023438 35.644531 80.859375 35.644531 C 84.695312 35.644531 87.808594 38.753906 87.808594 42.585938 L 87.808594 45.039062 L 90.699219 45.039062 L 90.699219 42.585938 C 90.699219 38.753906 93.8125 35.644531 97.648438 35.644531 C 101.484375 35.644531 104.59375 38.753906 104.59375 42.585938 L 104.59375 45.039062 L 106.949219 45.039062 L 106.949219 19.609375 C 106.949219 15.777344 110.0625 12.667969 113.898438 12.667969 C 117.734375 12.667969 120.84375 15.777344 120.84375 19.609375 L 120.84375 45.039062 L 123.203125 45.039062 L 123.203125 42.585938 C 123.203125 38.753906 126.316406 35.644531 130.152344 35.644531 C 133.988281 35.644531 137.097656 38.753906 137.097656 42.585938 L 137.097656 45.039062 L 139.992188 45.039062 L 139.992188 42.585938 C 139.992188 38.753906 143.105469 35.644531 146.941406 35.644531 C 150.777344 35.644531 153.886719 38.753906 153.886719 42.585938 L 153.886719 45.039062 L 180.40625 45.039062 C 184.242188 45.039062 187.355469 48.148438 187.355469 51.980469 C 187.355469 55.816406 184.242188 58.925781 180.40625 58.925781 L 162.75 58.925781 L 120.84375 92.761719 L 120.84375 120.917969 Z M 130.375 58.925781 C 130.304688 58.929688 130.230469 58.929688 130.15625 58.929688 C 130.085938 58.929688 130.011719 58.929688 129.941406 58.925781 L 120.851562 58.925781 L 120.851562 74.910156 L 140.648438 58.925781 Z M 97.867188 58.925781 C 97.796875 58.929688 97.726562 58.929688 97.652344 58.929688 C 97.578125 58.929688 97.503906 58.929688 97.433594 58.925781 L 87.164062 58.925781 L 106.953125 74.910156 L 106.953125 58.925781 Z M 153.609375 197.675781 L 126.179688 198.292969 L 132.949219 152.191406 C 133.125 150.992188 132.472656 149.820312 131.363281 149.328125 C 130.253906 148.839844 128.949219 149.152344 128.183594 150.09375 L 71.984375 218.996094 C 71.332031 219.800781 71.195312 220.910156 71.636719 221.847656 C 72.074219 222.785156 73.015625 223.390625 74.050781 223.402344 L 101.785156 223.703125 L 83.574219 281.558594 C 83.1875 282.789062 83.730469 284.121094 84.863281 284.738281 C 85.261719 284.953125 85.699219 285.0625 86.148438 285.0625 C 86.957031 285.0625 87.722656 284.710938 88.238281 284.085938 L 155.8125 202.09375 C 156.484375 201.277344 156.621094 200.148438 156.15625 199.195312 C 155.671875 198.199219 154.683594 197.722656 153.609375 197.679688 Z M 79.71875 218.0625 L 126.191406 161.089844 L 120.375 200.667969 C 120.257812 201.449219 120.496094 202.25 121.019531 202.84375 C 121.511719 203.394531 122.339844 203.78125 123.105469 203.753906 L 147.898438 203.199219 L 92.894531 269.933594 L 108.03125 221.847656 C 108.289062 221.03125 108.144531 220.144531 107.640625 219.453125 C 107.140625 218.761719 106.339844 218.351562 105.488281 218.34375 Z M 363.960938 362.113281 L 11.113281 362.113281 C 7.277344 362.113281 4.167969 359.003906 4.167969 355.171875 L 4.167969 325.84375 C 4.167969 322.011719 7.277344 318.902344 11.113281 318.902344 L 363.960938 318.902344 C 367.796875 318.902344 370.90625 322.011719 370.90625 325.84375 L 370.90625 355.171875 C 370.90625 359.003906 367.796875 362.113281 363.960938 362.113281 Z M 202.539062 313.238281 L 202.539062 191.546875 L 337.1875 191.546875 C 341.023438 191.546875 344.132812 194.65625 344.132812 198.488281 L 344.132812 313.238281 L 307.527344 313.238281 L 307.527344 255.117188 C 307.527344 236.28125 292.1875 220.953125 273.335938 220.953125 C 254.484375 220.953125 239.144531 236.28125 239.144531 255.117188 L 239.144531 313.238281 Z M 302.132812 313.238281 L 244.542969 313.238281 L 244.539062 255.117188 C 244.539062 239.253906 257.457031 226.347656 273.335938 226.347656 C 289.214844 226.347656 302.132812 239.253906 302.132812 255.117188 Z M 288.011719 285.722656 C 289.503906 285.722656 290.710938 284.515625 290.710938 283.023438 L 290.710938 270.800781 C 290.710938 269.308594 289.503906 268.101562 288.011719 268.101562 C 286.515625 268.101562 285.308594 269.308594 285.308594 270.800781 L 285.308594 283.023438 C 285.308594 284.515625 286.515625 285.722656 288.011719 285.722656 Z M 275.542969 185.890625 L 275.542969 115.445312 L 332.242188 115.445312 L 332.242188 185.890625 Z M 275.542969 110.046875 L 275.542969 74.398438 C 275.542969 70.566406 278.65625 67.457031 282.492188 67.457031 L 325.296875 67.457031 C 329.132812 67.457031 332.242188 70.566406 332.242188 74.398438 L 332.242188 110.046875 Z M 214.425781 185.890625 L 214.425781 63.59375 L 271.125 63.59375 L 271.125 185.890625 Z M 214.425781 58.195312 L 214.425781 21.808594 C 214.425781 17.972656 217.535156 14.867188 221.371094 14.867188 L 264.179688 14.867188 C 268.015625 14.867188 271.125 17.972656 271.125 21.808594 L 271.125 58.195312 Z M 214.425781 58.195312 "/></g><path style=" stroke:none;fill-rule:evenodd;fill:#f2f2f2;fill-opacity:1;" d="M 363.957031 359.988281 L 11.113281 359.988281 C 8.449219 359.988281 6.289062 357.832031 6.289062 355.167969 L 6.289062 325.839844 C 6.289062 323.179688 8.449219 321.019531 11.113281 321.019531 L 363.957031 321.019531 C 366.625 321.019531 368.78125 323.179688 368.78125 325.839844 L 368.78125 355.167969 C 368.78125 357.832031 366.625 359.988281 363.957031 359.988281 Z M 363.957031 359.988281 "/><path style=" stroke:none;fill-rule:evenodd;fill:#f2f2f2;fill-opacity:1;" d="M 180.414062 56.800781 L 47.390625 56.800781 C 44.726562 56.800781 42.566406 54.644531 42.566406 51.980469 C 42.566406 49.320312 44.726562 47.160156 47.390625 47.160156 L 180.414062 47.160156 C 183.078125 47.160156 185.238281 49.320312 185.238281 51.980469 C 185.238281 54.644531 183.078125 56.800781 180.414062 56.800781 Z M 180.414062 56.800781 "/><path style=" stroke:none;fill-rule:evenodd;fill:#f2f2f2;fill-opacity:1;" d="M 113.902344 132.679688 C 111.238281 132.679688 109.078125 130.523438 109.078125 127.859375 L 109.078125 19.609375 C 109.078125 16.949219 111.238281 14.789062 113.902344 14.789062 C 116.566406 14.789062 118.726562 16.949219 118.726562 19.609375 L 118.726562 127.859375 C 118.730469 130.519531 116.566406 132.679688 113.902344 132.679688 Z M 113.902344 132.679688 "/><path style=" stroke:none;fill-rule:evenodd;fill:#f2f2f2;fill-opacity:1;" d="M 113.902344 94.265625 C 112.828125 94.265625 111.753906 93.90625 110.871094 93.191406 L 64.480469 55.734375 C 62.410156 54.0625 62.085938 51.023438 63.761719 48.953125 C 65.4375 46.882812 68.476562 46.566406 70.546875 48.238281 L 113.902344 83.25 L 157.261719 48.238281 C 159.335938 46.566406 162.371094 46.886719 164.046875 48.953125 C 165.71875 51.027344 165.398438 54.0625 163.328125 55.734375 L 116.933594 93.191406 C 116.046875 93.90625 114.972656 94.265625 113.898438 94.265625 Z M 113.902344 94.265625 "/><path style=" stroke:none;fill-rule:evenodd;fill:#f2f2f2;fill-opacity:1;" d="M 97.652344 56.808594 C 94.988281 56.808594 92.828125 54.648438 92.828125 51.988281 L 92.828125 42.585938 C 92.828125 39.925781 94.988281 37.765625 97.652344 37.765625 C 100.320312 37.765625 102.476562 39.925781 102.476562 42.585938 L 102.476562 51.980469 C 102.476562 54.644531 100.316406 56.804688 97.652344 56.804688 Z M 97.652344 56.808594 "/><path style=" stroke:none;fill-rule:evenodd;fill:#f2f2f2;fill-opacity:1;" d="M 80.863281 56.808594 C 78.199219 56.808594 76.039062 54.648438 76.039062 51.988281 L 76.039062 42.585938 C 76.039062 39.925781 78.199219 37.765625 80.863281 37.765625 C 83.527344 37.765625 85.6875 39.925781 85.6875 42.585938 L 85.6875 51.980469 C 85.6875 54.644531 83.523438 56.804688 80.863281 56.804688 Z M 80.863281 56.808594 "/><path style=" stroke:none;fill-rule:evenodd;fill:#f2f2f2;fill-opacity:1;" d="M 146.949219 56.808594 C 144.28125 56.808594 142.121094 54.648438 142.121094 51.988281 L 142.121094 42.585938 C 142.121094 39.925781 144.28125 37.765625 146.949219 37.765625 C 149.613281 37.765625 151.773438 39.925781 151.773438 42.585938 L 151.773438 51.980469 C 151.773438 54.644531 149.609375 56.804688 146.949219 56.804688 Z M 146.949219 56.808594 "/><path style=" stroke:none;fill-rule:evenodd;fill:#f2f2f2;fill-opacity:1;" d="M 130.15625 56.808594 C 127.492188 56.808594 125.332031 54.648438 125.332031 51.988281 L 125.332031 42.585938 C 125.332031 39.925781 127.492188 37.765625 130.15625 37.765625 C 132.824219 37.765625 134.980469 39.925781 134.980469 42.585938 L 134.980469 51.980469 C 134.980469 54.644531 132.820312 56.804688 130.15625 56.804688 Z M 130.15625 56.808594 "/><path style=" stroke:none;fill-rule:evenodd;fill:#f2f2f2;fill-opacity:1;" d="M 204.660156 311.117188 L 204.660156 193.671875 L 337.1875 193.671875 C 339.851562 193.671875 342.011719 195.828125 342.011719 198.492188 L 342.011719 311.117188 L 309.648438 311.117188 L 309.648438 255.121094 C 309.648438 235.109375 293.359375 218.835938 273.332031 218.835938 C 253.3125 218.835938 237.019531 235.109375 237.019531 255.121094 L 237.019531 311.117188 Z M 300.007812 311.117188 L 246.667969 311.117188 L 246.667969 255.121094 C 246.667969 240.425781 258.632812 228.46875 273.335938 228.46875 C 288.039062 228.46875 300.007812 240.425781 300.007812 255.121094 Z M 288.011719 287.84375 C 285.347656 287.84375 283.1875 285.6875 283.1875 283.023438 L 283.1875 270.800781 C 283.1875 268.136719 285.347656 265.980469 288.011719 265.980469 C 290.671875 265.980469 292.835938 268.136719 292.835938 270.800781 L 292.835938 283.023438 C 292.835938 285.6875 290.671875 287.84375 288.011719 287.84375 Z M 288.011719 287.84375 "/><path style=" stroke:none;fill-rule:evenodd;fill:#f2f2f2;fill-opacity:1;" d="M 33.058594 311.117188 L 33.058594 127.859375 C 33.058594 125.199219 35.21875 123.039062 37.882812 123.039062 L 189.925781 123.039062 C 192.589844 123.039062 194.75 125.199219 194.75 127.859375 L 194.75 311.117188 Z M 86.148438 287.179688 C 85.367188 287.179688 84.578125 286.992188 83.851562 286.597656 C 81.820312 285.5 80.855469 283.117188 81.546875 280.917969 L 98.902344 225.789062 L 74.027344 225.519531 C 72.175781 225.5 70.496094 224.421875 69.710938 222.742188 C 68.925781 221.066406 69.171875 219.085938 70.339844 217.652344 L 126.539062 148.75 C 127.90625 147.070312 130.234375 146.511719 132.21875 147.382812 C 134.203125 148.261719 135.363281 150.351562 135.046875 152.496094 L 128.644531 196.109375 L 153.621094 195.550781 C 155.558594 195.605469 157.242188 196.570312 158.066406 198.261719 C 158.890625 199.957031 158.648438 201.976562 157.453125 203.433594 L 89.878906 285.425781 C 88.933594 286.570312 87.554688 287.179688 86.148438 287.179688 Z M 84.152344 215.988281 L 105.511719 216.21875 C 107.035156 216.234375 108.464844 216.972656 109.359375 218.207031 C 110.257812 219.441406 110.515625 221.027344 110.058594 222.480469 L 98.199219 260.164062 L 143.3125 205.421875 L 123.152344 205.875 C 121.828125 205.921875 120.375 205.3125 119.429688 204.25 C 118.488281 203.1875 118.066406 201.761719 118.273438 200.359375 L 122.972656 168.394531 Z M 84.152344 215.988281 "/><path style=" stroke:none;fill-rule:evenodd;fill:#f2f2f2;fill-opacity:1;" d="M 277.667969 183.765625 L 277.667969 117.570312 L 330.121094 117.570312 L 330.121094 183.765625 Z M 277.667969 107.925781 L 277.667969 74.398438 C 277.667969 71.738281 279.828125 69.578125 282.492188 69.578125 L 325.296875 69.578125 C 327.960938 69.578125 330.121094 71.738281 330.121094 74.398438 L 330.121094 107.925781 Z M 277.667969 107.925781 "/><path style=" stroke:none;fill-rule:evenodd;fill:#f2f2f2;fill-opacity:1;" d="M 216.550781 183.765625 L 216.550781 65.714844 L 269.007812 65.714844 L 269.007812 183.765625 Z M 216.550781 56.074219 L 216.550781 21.808594 C 216.550781 19.148438 218.710938 16.988281 221.375 16.988281 L 264.183594 16.988281 C 266.84375 16.988281 269.007812 19.148438 269.007812 21.808594 L 269.007812 56.074219 Z M 216.550781 56.074219 "/></g></svg>