<svg xmlns="http://www.w3.org/2000/svg" xmlns:xlink="http://www.w3.org/1999/xlink" width="500" zoomAndPan="magnify" viewBox="0 0 375 374.999991" height="500" preserveAspectRatio="xMidYMid meet" version="1.2"><defs><clipPath id="3e1cc84619"><path d="M 45.085938 8.363281 L 330.085938 8.363281 L 330.085938 366.863281 L 45.085938 366.863281 Z M 45.085938 8.363281 "/></clipPath></defs><g id="95a43252cc"><g clip-rule="nonzero" clip-path="url(#3e1cc84619)"><path style=" stroke:none;fill-rule:evenodd;fill:#d3d3d3;fill-opacity:1;" d="M 323.160156 366.847656 L 248.800781 366.847656 C 246.941406 366.847656 245.167969 366.085938 243.882812 364.746094 C 242.601562 363.40625 241.921875 361.585938 242.003906 359.734375 L 246.871094 253.59375 L 325.144531 253.59375 L 329.972656 358.863281 C 330.039062 359.257812 330.074219 359.652344 330.074219 360.046875 C 330.074219 363.804688 327.027344 366.847656 323.390625 366.84375 C 323.3125 366.847656 323.238281 366.847656 323.160156 366.847656 Z M 247.117188 248.292969 L 248.730469 213.074219 L 323.289062 213.074219 L 324.90625 248.292969 L 247.113281 248.292969 Z M 248.972656 207.769531 L 253.867188 101.011719 C 254.03125 97.378906 257.023438 94.523438 260.660156 94.523438 L 311.359375 94.523438 C 314.992188 94.523438 317.984375 97.382812 318.152344 101.011719 L 323.046875 207.769531 Z M 236.101562 366.847656 L 164.886719 366.847656 L 164.886719 298.382812 C 164.886719 296.917969 163.699219 295.730469 162.234375 295.730469 L 119.050781 295.730469 C 117.585938 295.730469 116.402344 296.917969 116.402344 298.382812 L 116.402344 366.847656 L 51.886719 366.847656 C 48.132812 366.847656 45.085938 363.800781 45.085938 360.046875 L 45.085938 207.5 C 45.085938 203.742188 48.132812 200.695312 51.886719 200.695312 L 243.742188 200.695312 L 236.105469 366.847656 Z M 213.25 327.832031 C 214.710938 327.832031 215.898438 326.644531 215.898438 325.179688 L 215.898438 298.382812 C 215.898438 296.917969 214.714844 295.730469 213.25 295.730469 L 186.441406 295.730469 C 184.976562 295.730469 183.792969 296.917969 183.792969 298.382812 L 183.792969 325.179688 C 183.792969 326.644531 184.976562 327.832031 186.441406 327.832031 Z M 189.089844 322.535156 L 189.089844 301.035156 L 210.601562 301.035156 L 210.601562 322.535156 Z M 94.839844 327.832031 C 96.304688 327.832031 97.488281 326.644531 97.488281 325.179688 L 97.488281 298.382812 C 97.488281 296.917969 96.300781 295.730469 94.839844 295.730469 L 68.03125 295.730469 C 66.566406 295.730469 65.382812 296.917969 65.382812 298.382812 L 65.382812 325.179688 C 65.382812 326.644531 66.566406 327.832031 68.03125 327.832031 Z M 70.683594 322.535156 L 70.683594 301.035156 L 92.1875 301.035156 L 92.1875 322.535156 Z M 213.25 271.804688 C 214.71875 271.804688 215.902344 270.617188 215.902344 269.15625 L 215.902344 242.359375 C 215.902344 240.894531 214.71875 239.707031 213.25 239.707031 L 186.445312 239.707031 C 184.980469 239.707031 183.796875 240.894531 183.796875 242.359375 L 183.796875 269.15625 C 183.796875 270.617188 184.980469 271.804688 186.445312 271.804688 Z M 189.09375 266.507812 L 189.09375 245.007812 L 210.601562 245.007812 L 210.601562 266.507812 Z M 154.046875 271.804688 C 155.511719 271.804688 156.695312 270.621094 156.695312 269.15625 L 156.695312 242.359375 C 156.695312 240.894531 155.507812 239.707031 154.046875 239.707031 L 127.242188 239.707031 C 125.777344 239.707031 124.589844 240.894531 124.589844 242.359375 L 124.589844 269.15625 C 124.589844 270.617188 125.777344 271.804688 127.242188 271.804688 Z M 129.890625 266.507812 L 129.890625 245.007812 L 151.398438 245.007812 L 151.398438 266.507812 Z M 94.839844 271.804688 C 96.304688 271.804688 97.492188 270.621094 97.492188 269.15625 L 97.492188 242.359375 C 97.492188 240.894531 96.304688 239.707031 94.839844 239.707031 L 68.03125 239.707031 C 66.570312 239.707031 65.382812 240.894531 65.382812 242.359375 L 65.382812 269.15625 C 65.382812 270.617188 66.570312 271.804688 68.03125 271.804688 Z M 70.6875 266.507812 L 70.6875 245.007812 L 92.191406 245.007812 L 92.191406 266.507812 Z M 159.585938 366.847656 L 121.703125 366.847656 L 121.703125 301.035156 L 159.585938 301.035156 Z M 79.644531 19.046875 C 83.925781 12.222656 91.25 8.375 99.40625 8.375 C 109.71875 8.375 119.089844 14.796875 122.132812 24.648438 C 133.632812 26.328125 142.328125 36.269531 142.324219 48.039062 C 142.320312 61.074219 131.714844 71.675781 118.679688 71.675781 C 109.058594 71.675781 102.023438 68.179688 97.117188 60.09375 C 95.417969 59.964844 93.738281 59.65625 92.105469 59.167969 C 86.75 64.765625 82.980469 65.789062 74.660156 65.789062 C 62.03125 65.789062 51.023438 54.785156 51.023438 42.152344 C 51.023438 29.117188 61.621094 18.515625 74.660156 18.515625 C 76.335938 18.515625 78.007812 18.695312 79.640625 19.050781 Z M 212.980469 65.488281 C 223.476562 67.226562 231.320312 76.378906 231.320312 87.15625 C 231.320312 99.269531 221.472656 109.117188 209.359375 109.117188 C 200.585938 109.117188 194.089844 105.976562 189.539062 98.65625 C 188.214844 98.539062 186.902344 98.296875 185.621094 97.9375 C 180.796875 102.863281 177.117188 103.816406 169.710938 103.816406 C 157.972656 103.816406 147.75 93.59375 147.75 81.851562 C 147.75 69.746094 157.601562 59.890625 169.710938 59.890625 C 171.109375 59.890625 172.503906 60.027344 173.878906 60.292969 C 177.898438 54.179688 184.585938 50.757812 191.996094 50.757812 C 201.414062 50.757812 210.027344 56.550781 212.980469 65.488281 Z M 71.929688 75.925781 L 121.421875 75.925781 C 126.375 75.925781 130.417969 79.96875 130.417969 84.921875 L 130.417969 195.160156 L 62.9375 195.160156 L 62.9375 84.921875 C 62.9375 79.96875 66.980469 75.925781 71.929688 75.925781 Z M 168.640625 113.773438 L 210.433594 113.773438 C 214.792969 113.773438 218.351562 117.332031 218.351562 121.691406 L 218.351562 195.160156 L 160.722656 195.160156 L 160.722656 121.691406 C 160.722656 117.332031 164.28125 113.773438 168.640625 113.773438 Z M 168.640625 113.773438 "/></g><path style=" stroke:none;fill-rule:evenodd;fill:#f2f2f2;fill-opacity:1;" d="M 323.273438 364.773438 C 323.261719 364.773438 323.238281 364.777344 323.21875 364.773438 L 248.800781 364.773438 C 247.507812 364.773438 246.277344 364.246094 245.382812 363.308594 C 244.488281 362.375 244.019531 361.125 244.082031 359.828125 L 248.855469 255.671875 L 323.164062 255.671875 L 327.910156 359.105469 C 327.96875 359.40625 328.003906 359.726562 328.003906 360.050781 C 328.003906 362.660156 325.890625 364.773438 323.277344 364.773438 Z M 249.285156 246.21875 L 250.710938 215.148438 L 321.308594 215.148438 L 322.730469 246.21875 Z M 251.144531 205.695312 L 255.9375 101.105469 C 256.054688 98.582031 258.132812 96.597656 260.660156 96.597656 L 311.359375 96.597656 C 313.882812 96.597656 315.964844 98.582031 316.078125 101.105469 L 320.875 205.695312 Z M 251.144531 205.695312 "/><path style=" stroke:none;fill-rule:evenodd;fill:#f2f2f2;fill-opacity:1;" d="M 234.121094 364.773438 L 166.960938 364.773438 L 166.960938 298.382812 C 166.960938 295.773438 164.84375 293.65625 162.234375 293.65625 L 119.050781 293.65625 C 116.441406 293.65625 114.324219 295.773438 114.324219 298.382812 L 114.324219 364.773438 L 51.886719 364.773438 C 49.273438 364.773438 47.160156 362.65625 47.160156 360.046875 L 47.160156 207.5 C 47.160156 204.886719 49.273438 202.773438 51.886719 202.773438 L 241.566406 202.773438 Z M 157.507812 364.773438 L 123.777344 364.773438 L 123.777344 303.109375 L 157.507812 303.109375 Z M 213.25 329.90625 L 186.445312 329.90625 C 183.832031 329.90625 181.71875 327.792969 181.71875 325.179688 L 181.71875 298.382812 C 181.71875 295.773438 183.832031 293.65625 186.445312 293.65625 L 213.25 293.65625 C 215.863281 293.65625 217.976562 295.773438 217.976562 298.382812 L 217.976562 325.179688 C 217.976562 327.792969 215.859375 329.90625 213.25 329.90625 Z M 191.164062 320.457031 L 208.523438 320.457031 L 208.523438 303.109375 L 191.164062 303.109375 Z M 94.839844 329.90625 L 68.03125 329.90625 C 65.421875 329.90625 63.304688 327.792969 63.304688 325.179688 L 63.304688 298.382812 C 63.304688 295.773438 65.421875 293.65625 68.03125 293.65625 L 94.839844 293.65625 C 97.449219 293.65625 99.5625 295.773438 99.5625 298.382812 L 99.5625 325.179688 C 99.566406 327.792969 97.449219 329.90625 94.839844 329.90625 Z M 72.757812 320.457031 L 90.113281 320.457031 L 90.113281 303.109375 L 72.757812 303.109375 Z M 213.25 273.878906 L 186.445312 273.878906 C 183.832031 273.878906 181.71875 271.765625 181.71875 269.152344 L 181.71875 242.359375 C 181.71875 239.746094 183.832031 237.632812 186.445312 237.632812 L 213.25 237.632812 C 215.863281 237.632812 217.976562 239.746094 217.976562 242.359375 L 217.976562 269.152344 C 217.976562 271.765625 215.859375 273.878906 213.25 273.878906 Z M 191.164062 264.429688 L 208.523438 264.429688 L 208.523438 247.082031 L 191.164062 247.082031 Z M 154.042969 273.878906 L 127.238281 273.878906 C 124.628906 273.878906 122.511719 271.765625 122.511719 269.152344 L 122.511719 242.359375 C 122.511719 239.746094 124.628906 237.632812 127.238281 237.632812 L 154.042969 237.632812 C 156.652344 237.632812 158.769531 239.746094 158.769531 242.359375 L 158.769531 269.152344 C 158.769531 271.765625 156.652344 273.878906 154.042969 273.878906 Z M 131.964844 264.429688 L 149.320312 264.429688 L 149.320312 247.082031 L 131.964844 247.082031 Z M 94.839844 273.878906 L 68.03125 273.878906 C 65.421875 273.878906 63.304688 271.765625 63.304688 269.152344 L 63.304688 242.359375 C 63.304688 239.746094 65.421875 237.632812 68.03125 237.632812 L 94.839844 237.632812 C 97.449219 237.632812 99.5625 239.746094 99.5625 242.359375 L 99.5625 269.152344 C 99.566406 271.765625 97.449219 273.878906 94.839844 273.878906 Z M 72.757812 264.429688 L 90.113281 264.429688 L 90.113281 247.082031 L 72.757812 247.082031 Z M 72.757812 264.429688 "/><path style=" stroke:none;fill-rule:evenodd;fill:#f2f2f2;fill-opacity:1;" d="M 118.679688 69.597656 C 109.175781 69.597656 102.785156 66.015625 98.34375 58.078125 C 95.996094 58.015625 93.679688 57.574219 91.492188 56.777344 C 86.574219 62.199219 83.761719 63.710938 74.65625 63.710938 C 63.171875 63.710938 53.097656 53.636719 53.097656 42.148438 C 53.097656 30.257812 62.765625 20.585938 74.65625 20.585938 C 76.695312 20.585938 78.710938 20.878906 80.652344 21.4375 C 84.296875 14.621094 91.210938 10.445312 99.402344 10.445312 C 108.359375 10.445312 117.992188 16.054688 120.5 26.546875 C 131.539062 27.464844 140.25 36.75 140.25 48.035156 C 140.238281 59.925781 130.570312 69.59375 118.679688 69.59375 Z M 118.679688 69.597656 "/><path style=" stroke:none;fill-rule:evenodd;fill:#f2f2f2;fill-opacity:1;" d="M 209.355469 107.039062 C 200.691406 107.039062 194.84375 103.8125 190.761719 96.65625 C 188.792969 96.578125 186.847656 96.210938 185.003906 95.570312 C 180.667969 100.292969 177.921875 101.738281 169.707031 101.738281 C 159.113281 101.738281 149.820312 92.445312 149.820312 81.851562 C 149.820312 70.886719 158.742188 61.964844 169.707031 61.964844 C 171.457031 61.964844 173.195312 62.199219 174.871094 62.644531 C 178.277344 56.550781 184.566406 52.832031 191.992188 52.832031 C 200.15625 52.832031 208.933594 57.890625 211.367188 67.363281 C 221.390625 68.367188 229.242188 76.859375 229.242188 87.152344 C 229.242188 98.121094 220.320312 107.039062 209.355469 107.039062 Z M 209.355469 107.039062 "/><path style=" stroke:none;fill-rule:evenodd;fill:#f2f2f2;fill-opacity:1;" d="M 71.925781 78 L 121.417969 78 C 125.222656 78 128.335938 81.113281 128.335938 84.917969 L 128.335938 193.082031 L 65.007812 193.082031 L 65.007812 84.917969 C 65.007812 81.113281 68.117188 78 71.925781 78 Z M 71.925781 78 "/><path style=" stroke:none;fill-rule:evenodd;fill:#f2f2f2;fill-opacity:1;" d="M 168.636719 115.84375 L 210.429688 115.84375 C 213.644531 115.84375 216.273438 118.476562 216.273438 121.6875 L 216.273438 193.082031 L 162.792969 193.082031 L 162.792969 121.6875 C 162.792969 118.472656 165.421875 115.84375 168.636719 115.84375 Z M 168.636719 115.84375 "/></g></svg>