<svg width="22" height="24" viewBox="0 0 22 24" fill="none" xmlns="http://www.w3.org/2000/svg">
<g clip-path="url(#clip0_2439_10)">
<path d="M17.7461 0.143555H4.25391C1.90781 0.143555 0 2.13809 0 4.59082V9.28965V18.7053C0 21.158 1.90781 23.1525 4.25391 23.1525H17.7461C20.0922 23.1525 22 21.158 22 18.7053V9.28067V4.58184C21.9914 2.13809 20.0836 0.143555 17.7461 0.143555ZM18.9664 2.79395H19.4562V3.29707V6.69316L15.7352 6.70215L15.7266 2.80293L18.9664 2.79395ZM7.85469 9.28067C8.55937 8.26543 9.70234 7.5916 10.9914 7.5916C12.2805 7.5916 13.4234 8.25645 14.1281 9.28067C14.5922 9.94551 14.8586 10.7631 14.8586 11.6436C14.8586 13.8717 13.1227 15.6955 10.9828 15.6955C8.84297 15.6955 7.12422 13.8717 7.12422 11.6436C7.12422 10.7631 7.39922 9.94551 7.85469 9.28067ZM19.8516 18.6963C19.8516 19.9092 18.9062 20.8975 17.7461 20.8975H4.25391C3.09375 20.8975 2.14844 19.9092 2.14844 18.6963V9.28067H5.43125C5.14766 10.0084 4.98438 10.808 4.98438 11.6436C4.98438 15.1115 7.68281 17.9326 11 17.9326C14.3172 17.9326 17.0156 15.1115 17.0156 11.6436C17.0156 10.808 16.8523 10.0084 16.5688 9.28067H19.8516V18.6963Z" fill="white"/>
</g>
<defs>
<clipPath id="clip0_2439_10">
<rect width="22" height="23" fill="white" transform="translate(0 0.143555)"/>
</clipPath>
</defs>
</svg>
