<svg width="155" height="65" viewBox="0 0 155 65" fill="none" xmlns="http://www.w3.org/2000/svg">
<path d="M8.388 35.248H16.452V40H2.232V14.728H8.388V35.248ZM25.5443 19.66V24.772H33.7883V29.524H25.5443V35.068H34.8683V40H19.3883V14.728H34.8683V19.66H25.5443ZM54.5968 35.536H45.1648L43.6528 40H37.2088L46.3528 14.728H53.4808L62.6248 40H56.1088L54.5968 35.536ZM53.0128 30.784L49.8808 21.532L46.7848 30.784H53.0128ZM88.0158 40H81.8598L71.5638 24.412V40H65.4078V14.728H71.5638L81.8598 30.388V14.728H88.0158V40ZM98.6341 14.728V40H92.4781V14.728H98.6341ZM125.703 40H119.547L109.251 24.412V40H103.095V14.728H109.251L119.547 30.388V14.728H125.703V40ZM139.634 14.728C142.298 14.728 144.626 15.256 146.618 16.312C148.61 17.368 150.146 18.856 151.226 20.776C152.33 22.672 152.882 24.868 152.882 27.364C152.882 29.836 152.33 32.032 151.226 33.952C150.146 35.872 148.598 37.36 146.582 38.416C144.59 39.472 142.274 40 139.634 40H130.166V14.728H139.634ZM139.238 34.672C141.566 34.672 143.378 34.036 144.674 32.764C145.97 31.492 146.618 29.692 146.618 27.364C146.618 25.036 145.97 23.224 144.674 21.928C143.378 20.632 141.566 19.984 139.238 19.984H136.322V34.672H139.238Z" fill="#3B3B3B"/>
<path d="M27.06 48.5C27.62 48.2067 28.14 48.02 28.62 47.94C29.1 47.8467 29.72 47.8 30.48 47.8C31.24 47.8 32.1733 47.98 33.28 48.34L32.96 49.4C31.76 49.16 30.8667 49.04 30.28 49.04C29.7067 49.04 29.2133 49.0733 28.8 49.14C28.3867 49.1933 27.96 49.3267 27.52 49.54C27.0933 49.7533 26.7533 50.0533 26.5 50.44C25.9267 51.32 25.64 52.6667 25.64 54.48C25.64 56.7067 26.04 58.2 26.84 58.96C27.2267 59.32 27.6267 59.5733 28.04 59.72C28.4533 59.8533 28.9067 59.92 29.4 59.92C29.9067 59.92 30.28 59.9067 30.52 59.88C31.2933 59.8267 32.06 59.5733 32.82 59.12L33.28 60.2C32.32 60.8533 31.0667 61.18 29.52 61.18C28.92 61.18 28.4 61.14 27.96 61.06C27.52 60.9933 27.0533 60.8333 26.56 60.58C26.0667 60.3133 25.66 59.9467 25.34 59.48C25.0333 59.0133 24.7733 58.36 24.56 57.52C24.3467 56.68 24.24 55.6933 24.24 54.56C24.24 53.4133 24.3733 52.42 24.64 51.58C24.9067 50.74 25.2333 50.0867 25.62 49.62C26.02 49.1533 26.5 48.78 27.06 48.5ZM40.4208 47.78C42.4341 47.78 43.8274 48.2467 44.6008 49.18C45.3874 50.1133 45.7808 51.86 45.7808 54.42C45.7808 55.7133 45.6274 56.82 45.3208 57.74C45.0141 58.66 44.5874 59.36 44.0408 59.84C43.0408 60.7333 41.8341 61.18 40.4208 61.18C38.4874 61.18 37.1874 60.8267 36.5208 60.12C35.8408 59.3867 35.4008 58.3733 35.2008 57.08C35.0941 56.3333 35.0408 55.4067 35.0408 54.3C35.0408 53.18 35.2074 52.1667 35.5408 51.26C35.8741 50.3533 36.3141 49.66 36.8608 49.18C37.9274 48.2467 39.1141 47.78 40.4208 47.78ZM40.0408 49.02C38.8274 49.02 37.9208 49.4467 37.3208 50.3C36.7341 51.14 36.4408 52.52 36.4408 54.44C36.4408 56.2533 36.6674 57.6 37.1208 58.48C37.4941 59.2133 38.1741 59.6667 39.1608 59.84C39.5608 59.92 40.0741 59.96 40.7008 59.96C41.9541 59.96 42.8808 59.5267 43.4808 58.66C44.0808 57.7933 44.3808 56.38 44.3808 54.42C44.3808 52.9 44.2341 51.7467 43.9408 50.96C43.7674 50.4933 43.5208 50.1267 43.2008 49.86C42.5341 49.3 41.4808 49.02 40.0408 49.02ZM57.0634 48.04H58.3834V61H56.9234L50.0834 50.06L50.1634 51.94V61H48.8434V48.04H50.2834L57.1234 58.94L57.0634 57.02V48.04ZM61.507 59.5C62.5337 59.8867 63.6404 60.08 64.827 60.08C66.0137 60.08 66.8537 59.9067 67.347 59.56C67.8404 59.2 68.087 58.54 68.087 57.58C68.087 57.0733 67.927 56.6533 67.607 56.32C67.3004 56.0267 67.0204 55.8133 66.767 55.68L66.047 55.32C65.8204 55.2133 65.5404 55.0867 65.207 54.94C64.887 54.7933 64.607 54.6667 64.367 54.56C64.127 54.44 63.8004 54.2733 63.387 54.06C62.9737 53.8333 62.6804 53.6467 62.507 53.5C62.3337 53.34 62.1404 53.1467 61.927 52.92C61.5537 52.5067 61.367 51.9733 61.367 51.32C61.367 50.2133 61.747 49.3533 62.507 48.74C63.267 48.1133 64.247 47.8 65.447 47.8C66.647 47.8 67.7604 47.9667 68.787 48.3L68.527 49.3C67.7004 49.0333 66.747 48.9 65.667 48.9C64.6004 48.9 63.847 49.0733 63.407 49.42C62.967 49.7533 62.747 50.3333 62.747 51.16C62.747 51.7733 63.0604 52.28 63.687 52.68C64.1937 53 64.9737 53.3933 66.027 53.86C67.0804 54.3133 67.7937 54.6667 68.167 54.92C69.1137 55.56 69.5937 56.4267 69.607 57.52C69.607 59.96 68.027 61.18 64.867 61.18C63.547 61.18 62.3137 60.9867 61.167 60.6L61.507 59.5ZM76.6805 61.2C76.6538 61.2 76.5605 61.2 76.4005 61.2C76.2405 61.2 76.0805 61.1933 75.9205 61.18C75.7605 61.18 75.5138 61.1533 75.1805 61.1C74.8471 61.06 74.5671 60.9933 74.3405 60.9C74.1138 60.7933 73.8538 60.6333 73.5605 60.42C73.2805 60.2067 73.0538 59.9533 72.8805 59.66C72.4405 58.9533 72.2205 58.04 72.2205 56.92V48.04H73.5605V56.92C73.6005 59.0133 74.6405 60.06 76.6805 60.06C77.5471 60.06 78.2671 59.8067 78.8405 59.3C79.4138 58.7933 79.7005 58.0267 79.7005 57V48.04H81.0005L80.9805 56.96C80.9805 59.7867 79.5471 61.2 76.6805 61.2ZM84.5666 60.98H84.5466V48.04H85.8666L85.8466 59.88H91.6066V61H84.5666V60.98ZM91.0972 49.16V48.04H99.6772V49.16H96.0372V61H94.7172V49.16H91.0972ZM101.968 48.04H103.288V61H101.968V48.04ZM115.149 48.04H116.469V61H115.009L108.169 50.06L108.249 51.94V61H106.929V48.04H108.369L115.209 58.94L115.149 57.02V48.04ZM125.513 54.36H128.973L128.953 59.98C127.833 60.78 126.58 61.18 125.193 61.18C124.473 61.18 123.853 61.1333 123.333 61.04C122.813 60.96 122.3 60.7867 121.793 60.52C121.286 60.24 120.88 59.86 120.573 59.38C119.88 58.3267 119.533 56.7067 119.533 54.52C119.533 50.04 121.513 47.8 125.473 47.8C125.993 47.8 126.606 47.8667 127.313 48C128.033 48.12 128.606 48.2667 129.033 48.44L128.673 49.48C127.726 49.1867 126.66 49.04 125.473 49.04C123.753 49.04 122.566 49.4467 121.913 50.26C121.26 51.0733 120.933 52.4867 120.933 54.5C120.933 56.8067 121.36 58.32 122.213 59.04C122.64 59.4 123.073 59.64 123.513 59.76C123.966 59.88 124.52 59.94 125.173 59.94C126.253 59.94 127.1 59.7333 127.713 59.32V55.32H125.513V54.36Z" fill="#A40000"/>
</svg>
