<svg width="27" height="23" viewBox="0 0 27 23" fill="none" xmlns="http://www.w3.org/2000/svg">
<path d="M5.87121 8.14355H1V22.0299H5.87121V8.14355Z" fill="white"/>
<path d="M2.97739 0.143555C1.18119 0.143555 0 1.17829 0 2.55215C0 3.89992 1.14215 4.96074 2.90906 4.96074H2.94811C4.78335 4.96074 5.9255 3.89122 5.91574 2.55215C5.87669 1.17829 4.77359 0.143555 2.97739 0.143555Z" fill="white"/>
<path d="M20.6401 8.14355C17.7665 8.14355 15.9681 9.49839 15.6365 10.4537V8.27383H10C10.0703 9.42891 10 22.1436 10 22.1436H15.6365V14.6485C15.6365 14.223 15.6164 13.8061 15.7571 13.5108C16.1389 12.6771 16.9728 11.8086 18.4699 11.8086C20.4291 11.8086 21.3132 13.0939 21.3132 14.9699V22.1436H27V14.4314C27 10.1411 24.2069 8.14355 20.6401 8.14355Z" fill="white"/>
</svg>
